<svg xmlns="http://www.w3.org/2000/svg" width="400" height="250" viewBox="0 0 400 250"><rect width="100%" height="100%" fill="#FDE68A"/><path fill="#FFF" d="M105.01 114.665h3.06l-6.51 20.97h-3.52l-4.59-14.33q-.19-.52-.34-1.27-.09.36-.18.68t-.19.59l-4.62 14.33h-3.54l-6.5-20.97h3.27q.5 0 .84.24t.46.65l3.57 12.54q.11.46.22 1.01.11.54.23 1.14.11-.61.25-1.15t.3-1l4.12-12.54q.11-.34.45-.61.34-.28.84-.28h1.14q.51 0 .83.25t.48.64l4.1 12.54q.31.9.55 2.07.19-1.14.42-2.07l3.57-12.54q.09-.37.44-.63.36-.26.85-.26m12.93 17.13v-2.51q-1.55.07-2.61.27-1.05.19-1.69.5-.64.3-.92.71-.27.4-.27.88 0 .94.56 1.35.55.41 1.45.41 1.11 0 1.91-.4.81-.4 1.57-1.21m-7.57-7.82-.63-1.14q2.56-2.35 6.17-2.35 1.31 0 2.34.43 1.03.42 1.74 1.18.71.77 1.08 1.82.37 1.06.37 2.32v9.4h-1.63q-.5 0-.78-.15-.27-.15-.43-.62l-.32-1.07q-.57.51-1.1.89-.54.38-1.12.65-.58.26-1.24.39-.66.14-1.46.14-.94 0-1.74-.25-.8-.26-1.38-.76-.58-.51-.89-1.26-.32-.76-.32-1.76 0-.56.18-1.12.19-.56.62-1.07t1.11-.96 1.67-.78q1-.33 2.32-.54t3.01-.26v-.87q0-1.49-.63-2.21-.64-.72-1.85-.72-.87 0-1.44.21-.57.2-1.01.45-.43.26-.79.46-.35.2-.79.2-.37 0-.63-.19-.27-.2-.43-.46m19.39 11.89q-1.94 0-2.98-1.09-1.04-1.1-1.04-3.03v-8.3h-1.52q-.29 0-.49-.19t-.2-.57v-1.42l2.39-.39.75-4.06q.08-.29.28-.45t.52-.16h1.86v4.68h3.97v2.56h-3.97v8.06q0 .69.34 1.08.34.4.93.4.34 0 .56-.08.23-.08.39-.17.17-.09.3-.17t.26-.08q.16 0 .26.08t.22.24l1.07 1.74q-.78.66-1.8.99-1.01.33-2.1.33m8.66-9.38h6.75q0-.7-.19-1.31-.2-.62-.59-1.08-.39-.47-.99-.73-.6-.27-1.4-.27-1.55 0-2.44.88-.9.89-1.14 2.51m9.13 2.16h-9.2q.08 1.15.4 1.98t.84 1.38q.52.54 1.24.81t1.59.27 1.5-.21q.63-.2 1.1-.44.47-.25.83-.45.35-.21.69-.21.45 0 .66.34l1.03 1.3q-.59.7-1.33 1.17t-1.54.75q-.81.29-1.64.4-.84.12-1.62.12-1.55 0-2.88-.52-1.34-.51-2.32-1.52-.99-1.01-1.56-2.49-.56-1.49-.56-3.45 0-1.52.49-2.86t1.41-2.34q.93-.99 2.25-1.57 1.33-.58 3-.58 1.4 0 2.59.45t2.05 1.31q.85.87 1.34 2.12.48 1.25.48 2.86 0 .82-.17 1.1t-.67.28m6.69-6.99.21 1.68q.7-1.33 1.66-2.09.95-.76 2.26-.76 1.03 0 1.65.45l-.23 2.68q-.07.26-.21.37t-.37.11q-.22 0-.64-.07-.43-.08-.84-.08-.59 0-1.06.18-.46.17-.83.5-.37.32-.65.79-.29.46-.53 1.06v9.16h-3.58v-14.88h2.1q.55 0 .77.2.21.19.29.7m19.17 3.55h2.91q1.07 0 1.87-.26.8-.27 1.33-.77t.79-1.22.26-1.6q0-.84-.26-1.53-.26-.68-.78-1.15-.53-.48-1.32-.74-.8-.25-1.89-.25h-2.91zm-3.9-10.54h6.81q2.1 0 3.64.5 1.54.49 2.54 1.37 1 .89 1.48 2.12.49 1.23.49 2.7 0 1.52-.51 2.79t-1.52 2.18q-1.02.91-2.55 1.42-1.52.51-3.57.51h-2.91v7.38h-3.9zm26.62 6.09h3.58v14.88h-2.19q-.71 0-.9-.65l-.25-1.19q-.91.93-2.01 1.5t-2.6.57q-1.21 0-2.15-.41t-1.57-1.17q-.64-.75-.97-1.79-.32-1.04-.32-2.28v-9.46h3.58v9.46q0 1.36.63 2.11.63.74 1.89.74.93 0 1.74-.41t1.54-1.14zm10.28.9.22 1.68q.69-1.33 1.65-2.09t2.26-.76q1.03 0 1.65.45l-.23 2.68q-.07.26-.21.37t-.37.11q-.22 0-.64-.07-.43-.08-.84-.08-.59 0-1.06.18-.46.17-.83.5-.37.32-.65.79-.28.46-.53 1.06v9.16h-3.58v-14.88h2.1q.55 0 .77.2.22.19.29.7m7.77-.9h3.6v14.88h-3.6zm4.09-4.33q0 .46-.19.87-.19.4-.5.71-.31.3-.73.48-.42.19-.9.19-.46 0-.88-.19-.41-.18-.72-.48-.3-.31-.48-.71-.18-.41-.18-.87 0-.48.18-.9t.48-.73q.31-.3.72-.48.42-.18.88-.18.48 0 .9.18t.73.48q.31.31.5.73t.19.9m7.79 19.21h-3.59v-12.18l-1.29-.2q-.42-.09-.67-.3t-.25-.6v-1.47h2.21v-1.1q0-1.27.39-2.29.38-1.01 1.1-1.73.72-.71 1.75-1.08 1.03-.38 2.32-.38 1.03 0 1.91.28l-.07 1.79q-.02.21-.12.33t-.27.19q-.16.06-.38.09-.22.02-.46.02-.64 0-1.14.14-.5.13-.85.47t-.53.9-.18 1.39v.98h3.87v2.56h-3.75zm5.88-14.88h3.6v14.88h-3.6zm4.09-4.33q0 .46-.19.87-.19.4-.5.71-.31.3-.73.48-.42.19-.9.19-.46 0-.88-.19-.41-.18-.71-.48-.31-.31-.49-.71-.18-.41-.18-.87 0-.48.18-.9t.49-.73q.3-.3.71-.48.42-.18.88-.18.48 0 .9.18t.73.48q.31.31.5.73t.19.9m14.76 6.17-.94 1.31q-.16.2-.31.32-.15.11-.44.11-.28 0-.54-.16-.26-.17-.62-.38-.37-.21-.87-.38-.5-.16-1.24-.16-.94 0-1.65.34t-1.18.98q-.47.63-.7 1.54-.24.91-.24 2.05 0 1.19.26 2.12.25.93.73 1.56t1.16.96q.68.32 1.54.32.85 0 1.38-.21t.89-.46q.37-.26.63-.47.27-.21.61-.21.43 0 .65.34l1.03 1.3q-.6.7-1.29 1.17-.7.47-1.45.75-.74.29-1.53.4-.79.12-1.58.12-1.37 0-2.59-.52-1.22-.51-2.13-1.5-.92-.98-1.45-2.41-.52-1.43-.52-3.26 0-1.64.47-3.04.47-1.39 1.38-2.42.91-1.02 2.26-1.6t3.11-.58q1.66 0 2.92.54 1.25.53 2.25 1.53m10.24 9.2v-2.51q-1.55.07-2.61.27-1.06.19-1.7.5-.63.3-.91.71-.28.4-.28.88 0 .94.56 1.35t1.46.41q1.1 0 1.91-.4.8-.4 1.57-1.21m-7.57-7.82-.64-1.14q2.57-2.35 6.18-2.35 1.3 0 2.33.43 1.03.42 1.74 1.18.71.77 1.08 1.82.37 1.06.37 2.32v9.4h-1.62q-.51 0-.78-.15-.28-.15-.44-.62l-.32-1.07q-.56.51-1.1.89t-1.12.65q-.58.26-1.24.39-.65.14-1.45.14-.94 0-1.74-.25-.8-.26-1.38-.76-.58-.51-.9-1.26-.32-.76-.32-1.76 0-.56.19-1.12t.62-1.07q.42-.51 1.11-.96.68-.45 1.67-.78t2.31-.54 3.02-.26v-.87q0-1.49-.64-2.21t-1.84-.72q-.87 0-1.44.21-.58.2-1.01.45-.44.26-.79.46-.36.2-.79.2-.38 0-.64-.19-.26-.2-.42-.46m19.39 11.89q-1.95 0-2.98-1.09-1.04-1.1-1.04-3.03v-8.3h-1.52q-.29 0-.49-.19-.21-.19-.21-.57v-1.42l2.39-.39.76-4.06q.07-.29.27-.45.21-.16.53-.16h1.85v4.68h3.98v2.56h-3.98v8.06q0 .69.34 1.08.34.4.94.4.33 0 .56-.08.22-.08.39-.17l.3-.17q.13-.08.26-.08.16 0 .26.08t.21.24l1.08 1.74q-.79.66-1.8.99-1.02.33-2.1.33m5.94-15.11h3.6v14.88h-3.6zm4.09-4.33q0 .46-.19.87-.19.4-.5.71-.31.3-.73.48-.42.19-.9.19-.46 0-.88-.19-.41-.18-.71-.48-.31-.31-.49-.71-.18-.41-.18-.87 0-.48.18-.9t.49-.73q.3-.3.71-.48.42-.18.88-.18.48 0 .9.18t.73.48q.31.31.5.73t.19.9m9.75 4.1q1.65 0 3 .54 1.36.53 2.32 1.52.97.99 1.49 2.41t.52 3.17q0 1.77-.52 3.19t-1.49 2.42q-.96 1-2.32 1.54-1.35.54-3 .54-1.67 0-3.04-.54-1.36-.54-2.32-1.54-.97-1-1.5-2.42t-.53-3.19q0-1.75.53-3.17t1.5-2.41q.96-.99 2.32-1.52 1.37-.54 3.04-.54m0 12.57q1.85 0 2.74-1.24.89-1.25.89-3.66t-.89-3.67-2.74-1.26q-1.89 0-2.8 1.27-.9 1.27-.9 3.66t.9 3.65q.91 1.25 2.8 1.25m13.18-11.68.24 1.17q.45-.45.95-.83.5-.39 1.06-.66.56-.26 1.2-.42.63-.15 1.39-.15 1.22 0 2.16.41.94.42 1.57 1.16.63.75.96 1.79.33 1.03.33 2.28v9.47h-3.59v-9.47q0-1.36-.62-2.11t-1.9-.75q-.93 0-1.74.43-.81.42-1.54 1.14v10.76h-3.58v-14.88h2.19q.7 0 .92.66m12.99-6.75h3.12v4.18l-.32 2.26q-.12.64-.38.98t-.87.34q-.54 0-.83-.34t-.4-.98l-.32-2.26z"/></svg>